<svg width="2669" height="517" viewBox="0 0 2669 517" fill="none" xmlns="http://www.w3.org/2000/svg">
<g filter="url(#filter0_d_151_67)">
<rect x="67.7744" y="57" width="2533.48" height="381.905" rx="80.6841" fill="white"/>
<path d="M1395.88 311.992H1377.98L1329.09 163.964H1347.17L1395.88 311.992Z" fill="black"/>
<path d="M458.351 297.639H482.965V312.442H455.597C444.236 312.442 440.277 306.418 440.277 297.639V185.757H458.351V297.639ZM493.725 267.001C493.725 237.395 511.11 220.183 536.757 220.183C560.854 220.183 577.551 235.158 577.551 260.976C577.551 264.247 577.379 268.206 576.862 271.132H512.315V276.296C512.315 290.41 522.298 300.049 537.101 300.049C548.978 300.049 557.756 293.853 559.994 284.73H577.723C574.452 302.459 558.1 314.163 537.101 314.163C510.594 314.163 493.725 295.746 493.725 267.001ZM512.315 258.739H559.477V255.468C559.477 242.903 550.183 234.469 536.585 234.469C522.298 234.469 512.315 243.247 512.315 256.157V258.739ZM600.044 273.37V259.083H659.428V273.37H600.044ZM763.94 280.943C761.703 301.082 746.384 314.163 724.179 314.163C697.328 314.163 681.148 295.402 681.148 267.345C681.148 237.912 698.877 220.183 724.524 220.183C746.384 220.183 761.875 232.92 763.596 252.37H746.039C743.63 240.838 735.023 235.33 724.007 235.33C709.721 235.33 699.737 245.829 699.737 260.804V274.919C699.737 289.377 709.376 299.188 724.179 299.188C736.056 299.188 744.662 292.131 746.384 280.943H763.94ZM779.145 267.173C779.145 237.739 796.358 220.183 822.005 220.183C847.135 220.183 864.864 237.051 864.864 267.173C864.864 295.402 849.201 314.163 822.005 314.163C795.669 314.163 779.145 296.09 779.145 267.173ZM797.735 274.574C797.735 290.754 808.579 299.188 822.005 299.188C835.775 299.188 846.275 290.582 846.275 274.574V260.46C846.275 244.969 836.119 235.33 822.005 235.33C807.718 235.33 797.735 245.141 797.735 260.46V274.574ZM887.234 312.442V221.904H903.069L905.479 238.772H909.094C913.397 227.068 923.725 220.183 935.601 220.183C947.65 220.183 957.806 227.24 960.904 239.461H964.691C969.51 227.412 980.182 220.183 992.919 220.183C1010.82 220.183 1022.35 229.994 1022.35 251.854V312.442H1004.11V257.534C1004.11 241.01 996.878 235.33 985.174 235.33C971.403 235.33 964.002 246.862 964.002 263.73V312.442H945.757V259.083C945.757 243.075 939.388 235.33 927.339 235.33C914.258 235.33 905.479 246.518 905.479 263.386V312.442H887.234ZM1050.79 312.442V221.904H1066.62L1069.03 238.772H1072.65C1076.95 227.068 1087.28 220.183 1099.15 220.183C1111.2 220.183 1121.36 227.24 1124.46 239.461H1128.24C1133.06 227.412 1143.74 220.183 1156.47 220.183C1174.37 220.183 1185.91 229.994 1185.91 251.854V312.442H1167.66V257.534C1167.66 241.01 1160.43 235.33 1148.73 235.33C1134.96 235.33 1127.56 246.862 1127.56 263.73V312.442H1109.31V259.083C1109.31 243.075 1102.94 235.33 1090.89 235.33C1077.81 235.33 1069.03 246.518 1069.03 263.386V312.442H1050.79ZM1214.34 207.101V185.757H1232.41V207.101H1214.34ZM1214.34 312.442V221.904H1232.41V312.442H1214.34ZM1285.14 297.639H1309.75V312.442H1282.39C1271.03 312.442 1267.07 306.418 1267.07 297.639V236.879H1249.68V221.904H1267.07V192.298H1285.14V221.904H1307.86V236.879H1285.14V297.639Z" fill="black"/>
<path d="M317.569 244.027C312.949 226.209 296.862 212.989 277.553 212.989C258.249 212.989 242.157 226.209 237.533 244.027H204.938V264.718H237.533C242.157 282.54 258.249 295.756 277.553 295.756C296.862 295.756 312.949 282.54 317.569 264.718H350.169V244.027H317.569ZM277.553 275.064C266.101 275.064 256.806 265.789 256.806 254.372C256.806 242.951 266.101 233.681 277.553 233.681C289.001 233.681 298.301 242.951 298.301 254.372C298.301 265.789 289.001 275.064 277.553 275.064Z" fill="black"/>
<path d="M1794.09 274.748V225.692H1812.68V272.683C1812.68 281.289 1814.4 287.773 1817.85 292.133C1821.29 296.494 1826.39 298.674 1833.16 298.674C1837.87 298.674 1841.89 297.526 1845.21 295.231C1848.66 292.936 1851.3 289.666 1853.13 285.42C1854.97 281.06 1855.89 275.839 1855.89 269.757V225.692H1874.48V313.821H1858.12L1854.51 294.027L1859.16 298.502C1856.4 302.748 1852.67 306.534 1847.97 309.862C1843.38 313.19 1837.01 314.854 1828.86 314.854C1824.16 314.854 1819.68 314.165 1815.44 312.788C1811.3 311.411 1807.63 309.174 1804.42 306.075C1801.21 302.977 1798.68 298.846 1796.85 293.682C1795.01 288.519 1794.09 282.207 1794.09 274.748ZM1892.79 225.692H1908.97L1912.59 245.831L1908.11 241.356C1910.87 237.11 1914.6 233.266 1919.3 229.824C1924.12 226.381 1930.78 224.66 1939.27 224.66C1945.81 224.66 1951.72 225.979 1957 228.619C1962.39 231.143 1966.69 235.332 1969.91 241.184C1973.12 247.036 1974.73 254.897 1974.73 264.765V313.821H1955.96V266.314C1955.96 257.937 1954.19 251.569 1950.63 247.208C1947.19 242.848 1941.97 240.667 1934.97 240.667C1930.03 240.667 1925.79 241.815 1922.23 244.11C1918.79 246.405 1916.09 249.733 1914.14 254.093C1912.3 258.339 1911.38 263.445 1911.38 269.413V313.821H1892.79V225.692ZM1991.63 313.821V225.692H2007.81L2011.43 245.831L2007.12 241.356C2008.85 238.602 2010.85 235.963 2013.15 233.438C2015.56 230.914 2018.6 228.848 2022.27 227.242C2025.94 225.52 2030.42 224.66 2035.7 224.66C2040.17 224.66 2044.42 225.463 2048.43 227.069C2052.45 228.561 2055.89 230.971 2058.76 234.299C2061.75 237.627 2063.87 241.987 2065.13 247.38L2060.31 245.659C2062.95 239.463 2066.91 234.414 2072.19 230.512C2077.58 226.61 2084.52 224.66 2093.01 224.66C2099.1 224.66 2104.66 225.922 2109.71 228.446C2114.76 230.971 2118.72 235.045 2121.59 240.667C2124.57 246.29 2126.06 253.749 2126.06 263.044V313.821H2107.47V264.249C2107.47 256.56 2105.92 250.708 2102.83 246.692C2099.73 242.676 2095.14 240.667 2089.06 240.667C2082.63 240.667 2077.52 242.962 2073.74 247.552C2070.06 252.028 2068.23 258.224 2068.23 266.142V313.821H2049.47V264.249C2049.47 256.56 2047.92 250.708 2044.82 246.692C2041.72 242.676 2037.07 240.667 2030.88 240.667C2026.63 240.667 2022.96 241.758 2019.86 243.938C2016.88 246.003 2014.53 249.044 2012.8 253.061C2011.08 256.962 2010.22 261.495 2010.22 266.658V313.821H1991.63ZM2142.05 252.544C2142.63 246.807 2144.58 241.872 2147.91 237.741C2151.35 233.61 2155.82 230.397 2161.33 228.102C2166.96 225.807 2173.5 224.66 2180.96 224.66C2192.66 224.66 2201.73 227.414 2208.15 232.922C2214.58 238.315 2217.79 246.233 2217.79 256.675V291.961C2217.79 294.141 2218.25 295.633 2219.17 296.436C2220.09 297.24 2221.52 297.641 2223.47 297.641H2227.26V313.821H2217.45C2211.13 313.821 2206.83 312.444 2204.54 309.69C2202.24 306.936 2201.15 303.207 2201.27 298.502L2201.44 292.133L2204.02 294.887C2201.27 300.625 2197.36 305.387 2192.32 309.174C2187.27 312.96 2180.55 314.854 2172.18 314.854C2165.75 314.854 2160.07 313.878 2155.14 311.928C2150.2 309.862 2146.36 306.879 2143.6 302.977C2140.85 299.076 2139.47 294.428 2139.47 289.035C2139.47 279.97 2142.69 273.027 2149.11 268.208C2155.54 263.273 2164.89 260.806 2177.17 260.806H2199.37V255.47C2199.37 250.536 2197.65 246.692 2194.21 243.938C2190.88 241.069 2186.18 239.635 2180.09 239.635C2174.59 239.635 2170.05 240.84 2166.5 243.249C2163.05 245.544 2160.99 248.643 2160.3 252.544H2142.05ZM2199.37 274.576H2176.31C2170.57 274.576 2166.15 275.666 2163.05 277.847C2159.96 280.027 2158.41 283.355 2158.41 287.83C2158.41 291.502 2159.84 294.543 2162.71 296.953C2165.69 299.248 2169.71 300.395 2174.76 300.395C2179.92 300.395 2184.28 299.42 2187.84 297.469C2191.51 295.518 2194.32 292.879 2196.27 289.551C2198.34 286.109 2199.37 282.15 2199.37 277.675V274.576ZM2273.87 314.854C2262.05 314.854 2252.47 312.215 2245.13 306.936C2237.78 301.657 2233.94 294.256 2233.6 284.732H2251.84C2252.19 289.322 2254.25 293.109 2258.04 296.092C2261.94 298.961 2267.22 300.395 2273.87 300.395C2277.78 300.395 2281.1 299.936 2283.86 299.018C2286.73 298.1 2288.96 296.781 2290.57 295.059C2292.18 293.223 2292.98 291.158 2292.98 288.863C2292.98 285.65 2292.12 283.355 2290.4 281.978C2288.68 280.486 2286.21 279.453 2283 278.879C2279.78 278.191 2275.88 277.56 2271.29 276.986C2266.24 276.412 2261.54 275.666 2257.18 274.748C2252.93 273.716 2249.14 272.339 2245.82 270.617C2242.6 268.781 2240.02 266.372 2238.07 263.388C2236.24 260.405 2235.32 256.618 2235.32 252.028C2235.32 246.405 2236.87 241.528 2239.96 237.397C2243.06 233.266 2247.31 230.11 2252.7 227.93C2258.21 225.635 2264.46 224.545 2271.46 224.66C2282.25 224.66 2291.14 227.069 2298.14 231.889C2305.26 236.709 2309.1 243.651 2309.68 252.716H2291.43C2290.97 248.7 2288.96 245.43 2285.41 242.905C2281.96 240.266 2277.43 238.946 2271.81 238.946C2266.3 238.946 2261.88 239.979 2258.55 242.044C2255.23 244.11 2253.56 246.921 2253.56 250.479C2253.56 253.233 2254.42 255.298 2256.14 256.675C2257.87 258.052 2260.33 259.028 2263.55 259.601C2266.76 260.175 2270.49 260.691 2274.73 261.15C2281.5 261.954 2287.64 263.159 2293.15 264.765C2298.66 266.257 2303.02 268.781 2306.23 272.339C2309.56 275.781 2311.23 280.773 2311.23 287.314C2311.23 292.936 2309.56 297.813 2306.23 301.944C2303.02 306.075 2298.6 309.288 2292.98 311.583C2287.36 313.764 2280.99 314.854 2273.87 314.854ZM2325.63 193.333H2344.22V268.38L2384.15 225.692H2406.01L2372.79 261.323L2408.08 313.821H2386.05L2360.06 274.921L2344.22 291.445V313.821H2325.63V193.333Z" fill="black"/>
<path d="M1711.47 316.01L1666.8 296.776L1651.74 283.869V249.957M1651.74 249.957L1668.19 219.208L1670.85 186.307L1657.44 160.999L1617.7 140.374L1580.25 146.574L1557.22 166.567M1651.74 249.957L1648.33 240.213M1557.22 166.567L1559.62 173.021L1548.61 200.859L1552.41 212.881L1546.21 231.229M1557.22 166.567L1626.44 175.805L1613.28 202.757L1628.46 221.865L1641.37 212.881L1653.64 217.309V231.229L1648.33 240.213M1546.21 231.229H1564.43M1546.21 231.229L1527.61 233.127M1564.43 231.229L1569.24 283.869M1564.43 231.229L1576.58 240.213L1579.36 272.734L1569.24 283.869M1569.24 283.869H1584.42M1569.24 283.869L1540.89 300.952L1533.36 289.184M1584.42 283.869L1621.88 272.734L1634.28 249.957L1643.01 249.197L1648.33 240.213M1584.42 283.869L1588.6 307.279L1557.22 318.035L1509.64 359.287L1521.41 307.279L1533.36 289.184M1527.61 233.127L1514.45 221.865L1501.67 227.812V240.213M1527.61 233.127L1522.98 240.213M1501.67 240.213L1494.45 246.034L1493.82 249.704L1486.23 254.765L1486.74 260.966L1481.29 266.66L1489.14 304.369L1471.68 368.398M1501.67 240.213H1508.88M1533.36 289.184L1530.77 285.135L1524.44 264.974M1492.81 275.011L1501.67 276.783V285.135L1511.79 283.11L1512.93 273.493M1512.93 273.493L1497.74 260.966M1512.93 273.493L1517.61 282.098L1524.44 278.301L1521.41 267.799L1504.96 249.704M1522.04 267.419L1524.44 264.974M1524.44 264.974L1523.31 261.345L1522.36 251.981M1522.36 251.981L1521.41 242.617L1522.98 240.213M1522.36 251.981L1508.88 240.213M1508.88 240.213L1512.93 233.886L1522.98 240.213" stroke="black" stroke-width="8.06841"/>
<path d="M1596.95 188.171L1586.32 201.331" stroke="#900000" stroke-width="5.37894"/>
<path d="M1586.32 188.171L1596.95 201.331" stroke="#900000" stroke-width="5.37894"/>
</g>
<defs>
<filter id="filter0_d_151_67" x="0.537659" y="0.521126" width="2667.95" height="516.378" filterUnits="userSpaceOnUse" color-interpolation-filters="sRGB">
<feFlood flood-opacity="0" result="BackgroundImageFix"/>
<feColorMatrix in="SourceAlpha" type="matrix" values="0 0 0 0 0 0 0 0 0 0 0 0 0 0 0 0 0 0 127 0" result="hardAlpha"/>
<feOffset dy="10.7579"/>
<feGaussianBlur stdDeviation="33.6184"/>
<feComposite in2="hardAlpha" operator="out"/>
<feColorMatrix type="matrix" values="0 0 0 0 0 0 0 0 0 0 0 0 0 0 0 0 0 0 0.1 0"/>
<feBlend mode="normal" in2="BackgroundImageFix" result="effect1_dropShadow_151_67"/>
<feBlend mode="normal" in="SourceGraphic" in2="effect1_dropShadow_151_67" result="shape"/>
</filter>
</defs>
</svg>
