<svg width="992" height="192" viewBox="0 0 992 192" fill="none" xmlns="http://www.w3.org/2000/svg">
<g filter="url(#filter0_d_151_67)">
<rect x="25" y="21" width="942" height="142" rx="30" fill="white"/>
<path d="M518.816 116.32H512.16L493.984 61.28H500.704L518.816 116.32Z" fill="black"/>
<path d="M170.224 110.496H179.376V116H169.2C164.976 116 163.504 113.76 163.504 110.496V68.896H170.224V110.496ZM183.377 99.104C183.377 88.096 189.841 81.696 199.377 81.696C208.337 81.696 214.545 87.264 214.545 96.864C214.545 98.08 214.481 99.552 214.289 100.64H190.289V102.56C190.289 107.808 194.001 111.392 199.505 111.392C203.921 111.392 207.185 109.088 208.017 105.696H214.609C213.393 112.288 207.313 116.64 199.505 116.64C189.649 116.64 183.377 109.792 183.377 99.104ZM190.289 96.032H207.825V94.816C207.825 90.144 204.369 87.008 199.313 87.008C194.001 87.008 190.289 90.272 190.289 95.072V96.032ZM222.909 101.472V96.16H244.989V101.472H222.909ZM283.849 104.288C283.017 111.776 277.321 116.64 269.065 116.64C259.081 116.64 253.065 109.664 253.065 99.232C253.065 88.288 259.657 81.696 269.193 81.696C277.321 81.696 283.081 86.432 283.721 93.664H277.193C276.297 89.376 273.097 87.328 269.001 87.328C263.689 87.328 259.977 91.232 259.977 96.8V102.048C259.977 107.424 263.561 111.072 269.065 111.072C273.481 111.072 276.681 108.448 277.321 104.288H283.849ZM289.502 99.168C289.502 88.224 295.902 81.696 305.438 81.696C314.782 81.696 321.374 87.968 321.374 99.168C321.374 109.664 315.55 116.64 305.438 116.64C295.646 116.64 289.502 109.92 289.502 99.168ZM296.414 101.92C296.414 107.936 300.446 111.072 305.438 111.072C310.558 111.072 314.462 107.872 314.462 101.92V96.672C314.462 90.912 310.686 87.328 305.438 87.328C300.126 87.328 296.414 90.976 296.414 96.672V101.92ZM329.692 116V82.336H335.58L336.476 88.608H337.82C339.42 84.256 343.26 81.696 347.676 81.696C352.156 81.696 355.932 84.32 357.083 88.864H358.492C360.284 84.384 364.252 81.696 368.988 81.696C375.644 81.696 379.932 85.344 379.932 93.472V116H373.148V95.584C373.148 89.44 370.46 87.328 366.108 87.328C360.988 87.328 358.236 91.616 358.236 97.888V116H351.452V96.16C351.452 90.208 349.084 87.328 344.604 87.328C339.74 87.328 336.476 91.488 336.476 97.76V116H329.692ZM390.504 116V82.336H396.392L397.288 88.608H398.632C400.232 84.256 404.072 81.696 408.488 81.696C412.968 81.696 416.744 84.32 417.896 88.864H419.304C421.096 84.384 425.064 81.696 429.8 81.696C436.456 81.696 440.744 85.344 440.744 93.472V116H433.96V95.584C433.96 89.44 431.272 87.328 426.92 87.328C421.8 87.328 419.048 91.616 419.048 97.888V116H412.264V96.16C412.264 90.208 409.896 87.328 405.416 87.328C400.552 87.328 397.288 91.488 397.288 97.76V116H390.504ZM451.317 76.832V68.896H458.037V76.832H451.317ZM451.317 116V82.336H458.037V116H451.317ZM477.641 110.496H486.793V116H476.617C472.393 116 470.921 113.76 470.921 110.496V87.904H464.457V82.336H470.921V71.328H477.641V82.336H486.089V87.904H477.641V110.496Z" fill="black"/>
<path d="M117.879 90.5403C116.161 83.9155 110.179 79 103 79C95.8225 79 89.839 83.9155 88.1195 90.5403H76V98.2339H88.1195C89.839 104.861 95.8225 109.774 103 109.774C110.179 109.774 116.161 104.861 117.879 98.2339H130V90.5403H117.879ZM103 102.081C98.7417 102.081 95.2857 98.6321 95.2857 94.3871C95.2857 90.1403 98.7417 86.6935 103 86.6935C107.256 86.6935 110.714 90.1403 110.714 94.3871C110.714 98.6321 107.256 102.081 103 102.081Z" fill="black"/>
<path d="M666.88 102.472V84.232H673.792V101.704C673.792 104.904 674.432 107.315 675.712 108.936C676.992 110.557 678.891 111.368 681.408 111.368C683.157 111.368 684.651 110.941 685.888 110.088C687.168 109.235 688.149 108.019 688.832 106.44C689.515 104.819 689.856 102.877 689.856 100.616V84.232H696.768V117H690.688L689.344 109.64L691.072 111.304C690.048 112.883 688.661 114.291 686.912 115.528C685.205 116.765 682.837 117.384 679.808 117.384C678.059 117.384 676.395 117.128 674.816 116.616C673.28 116.104 671.915 115.272 670.72 114.12C669.525 112.968 668.587 111.432 667.904 109.512C667.221 107.592 666.88 105.245 666.88 102.472ZM703.58 84.232H709.595L710.94 91.72L709.276 90.056C710.3 88.4773 711.686 87.048 713.436 85.768C715.228 84.488 717.702 83.848 720.86 83.848C723.292 83.848 725.489 84.3387 727.452 85.32C729.457 86.2587 731.057 87.816 732.252 89.992C733.446 92.168 734.044 95.0907 734.044 98.76V117H727.068V99.336C727.068 96.2213 726.406 93.8533 725.084 92.232C723.804 90.6107 721.862 89.8 719.26 89.8C717.425 89.8 715.846 90.2267 714.524 91.08C713.244 91.9333 712.241 93.1707 711.516 94.792C710.833 96.3707 710.492 98.2693 710.492 100.488V117H703.58V84.232ZM740.33 117V84.232H746.345L747.69 91.72L746.09 90.056C746.73 89.032 747.476 88.0507 748.33 87.112C749.226 86.1733 750.356 85.4053 751.722 84.808C753.087 84.168 754.751 83.848 756.714 83.848C758.378 83.848 759.956 84.1467 761.45 84.744C762.943 85.2987 764.223 86.1947 765.29 87.432C766.399 88.6693 767.188 90.2907 767.658 92.296L765.866 91.656C766.847 89.352 768.319 87.4747 770.282 86.024C772.287 84.5733 774.868 83.848 778.026 83.848C780.287 83.848 782.356 84.3173 784.234 85.256C786.111 86.1947 787.583 87.7093 788.65 89.8C789.759 91.8907 790.314 94.664 790.314 98.12V117H783.402V98.568C783.402 95.7093 782.826 93.5333 781.674 92.04C780.522 90.5467 778.815 89.8 776.554 89.8C774.164 89.8 772.266 90.6533 770.858 92.36C769.492 94.024 768.81 96.328 768.81 99.272V117H761.834V98.568C761.834 95.7093 761.258 93.5333 760.106 92.04C758.954 90.5467 757.226 89.8 754.922 89.8C753.343 89.8 751.978 90.2053 750.826 91.016C749.716 91.784 748.842 92.9147 748.202 94.408C747.562 95.8587 747.242 97.544 747.242 99.464V117H740.33ZM796.26 94.216C796.473 92.0827 797.198 90.248 798.436 88.712C799.716 87.176 801.38 85.9813 803.428 85.128C805.518 84.2747 807.95 83.848 810.724 83.848C815.076 83.848 818.446 84.872 820.836 86.92C823.225 88.9253 824.42 91.8693 824.42 95.752V108.872C824.42 109.683 824.59 110.237 824.932 110.536C825.273 110.835 825.806 110.984 826.532 110.984H827.94V117H824.292C821.945 117 820.345 116.488 819.492 115.464C818.638 114.44 818.233 113.053 818.276 111.304L818.34 108.936L819.3 109.96C818.276 112.093 816.825 113.864 814.948 115.272C813.07 116.68 810.574 117.384 807.46 117.384C805.07 117.384 802.958 117.021 801.124 116.296C799.289 115.528 797.86 114.419 796.836 112.968C795.812 111.517 795.299 109.789 795.299 107.784C795.299 104.413 796.494 101.832 798.884 100.04C801.273 98.2053 804.75 97.288 809.316 97.288H817.572V95.304C817.572 93.4693 816.932 92.04 815.652 91.016C814.414 89.9493 812.665 89.416 810.404 89.416C808.356 89.416 806.67 89.864 805.348 90.76C804.068 91.6133 803.3 92.7653 803.044 94.216H796.26ZM817.572 102.408H808.996C806.862 102.408 805.22 102.813 804.068 103.624C802.916 104.435 802.34 105.672 802.34 107.336C802.34 108.701 802.873 109.832 803.94 110.728C805.049 111.581 806.542 112.008 808.42 112.008C810.34 112.008 811.961 111.645 813.284 110.92C814.649 110.195 815.694 109.213 816.42 107.976C817.188 106.696 817.572 105.224 817.572 103.56V102.408ZM845.273 117.384C840.878 117.384 837.315 116.403 834.585 114.44C831.854 112.477 830.425 109.725 830.297 106.184H837.081C837.209 107.891 837.977 109.299 839.385 110.408C840.835 111.475 842.798 112.008 845.273 112.008C846.723 112.008 847.961 111.837 848.985 111.496C850.051 111.155 850.883 110.664 851.481 110.024C852.078 109.341 852.377 108.573 852.377 107.72C852.377 106.525 852.057 105.672 851.417 105.16C850.777 104.605 849.859 104.221 848.665 104.008C847.47 103.752 846.019 103.517 844.312 103.304C842.435 103.091 840.686 102.813 839.065 102.472C837.486 102.088 836.078 101.576 834.841 100.936C833.646 100.253 832.686 99.3573 831.961 98.248C831.278 97.1387 830.937 95.7307 830.937 94.024C830.937 91.9333 831.513 90.12 832.665 88.584C833.817 87.048 835.395 85.8747 837.401 85.064C839.449 84.2107 841.774 83.8053 844.377 83.848C848.387 83.848 851.694 84.744 854.297 86.536C856.942 88.328 858.371 90.9093 858.585 94.28H851.801C851.63 92.7867 850.883 91.5707 849.561 90.632C848.281 89.6507 846.595 89.16 844.505 89.16C842.457 89.16 840.814 89.544 839.577 90.312C838.339 91.08 837.72 92.1253 837.72 93.448C837.72 94.472 838.041 95.24 838.681 95.752C839.321 96.264 840.238 96.6267 841.433 96.84C842.627 97.0533 844.014 97.2453 845.593 97.416C848.11 97.7147 850.393 98.1627 852.441 98.76C854.489 99.3147 856.11 100.253 857.305 101.576C858.542 102.856 859.161 104.712 859.161 107.144C859.161 109.235 858.542 111.048 857.305 112.584C856.11 114.12 854.467 115.315 852.377 116.168C850.286 116.979 847.918 117.384 845.273 117.384ZM864.517 72.2H871.429V100.104L886.277 84.232H894.405L882.053 97.48L895.173 117H886.981L877.317 102.536L871.429 108.68V117H864.517V72.2Z" fill="black"/>
<path d="M636.16 117.305L619.551 110.154L613.952 105.355V92.7452M613.952 92.7452L620.069 81.3121L621.057 69.0791L616.069 59.6691L601.296 52L587.369 54.3054L578.806 61.7393M613.952 92.7452L612.682 89.1224M578.806 61.7393L579.7 64.1389L575.606 74.4899L577.018 78.9596L574.712 85.7819M578.806 61.7393L604.542 65.174L599.649 75.1956L605.295 82.3002L610.094 78.9596L614.658 80.6064V85.7819L612.682 89.1224M574.712 85.7819H581.488M574.712 85.7819L567.796 86.4876M581.488 85.7819L583.276 105.355M581.488 85.7819L586.004 89.1224L587.039 101.214L583.276 105.355M583.276 105.355H588.921M583.276 105.355L572.736 111.706L569.936 107.331M588.921 105.355L602.848 101.214L607.459 92.7452L610.706 92.4629L612.682 89.1224M588.921 105.355L590.474 114.059L578.806 118.058L561.115 133.396L565.491 114.059L569.936 107.331M567.796 86.4876L562.903 82.3002L558.151 84.5115V89.1224M567.796 86.4876L566.075 89.1224M558.151 89.1224L555.469 91.2867L555.234 92.6511L552.411 94.5331L552.599 96.8386L550.576 98.9558L553.493 112.977L547 136.784M558.151 89.1224H560.833M569.936 107.331L568.972 105.825L566.62 98.329M554.857 102.061L558.151 102.72V105.825L561.915 105.072L562.338 101.497M562.338 101.497L556.692 96.8386M562.338 101.497L564.079 104.696L566.62 103.284L565.491 99.3793L559.374 92.6511M565.726 99.2381L566.62 98.329M566.62 98.329L566.196 96.9797L565.843 93.498M565.843 93.498L565.491 90.0163L566.075 89.1224M565.843 93.498L560.833 89.1224M560.833 89.1224L562.338 86.7699L566.075 89.1224" stroke="black" stroke-width="3"/>
<path d="M593.579 69.7722L589.627 74.6654" stroke="#900000" stroke-width="2"/>
<path d="M589.627 69.7722L593.579 74.6654" stroke="#900000" stroke-width="2"/>
</g>
<defs>
<filter id="filter0_d_151_67" x="0" y="0" width="992" height="192" filterUnits="userSpaceOnUse" color-interpolation-filters="sRGB">
<feFlood flood-opacity="0" result="BackgroundImageFix"/>
<feColorMatrix in="SourceAlpha" type="matrix" values="0 0 0 0 0 0 0 0 0 0 0 0 0 0 0 0 0 0 127 0" result="hardAlpha"/>
<feOffset dy="4"/>
<feGaussianBlur stdDeviation="12.5"/>
<feComposite in2="hardAlpha" operator="out"/>
<feColorMatrix type="matrix" values="0 0 0 0 0 0 0 0 0 0 0 0 0 0 0 0 0 0 0.1 0"/>
<feBlend mode="normal" in2="BackgroundImageFix" result="effect1_dropShadow_151_67"/>
<feBlend mode="normal" in="SourceGraphic" in2="effect1_dropShadow_151_67" result="shape"/>
</filter>
</defs>
</svg>
