<svg width="179" height="129" viewBox="0 0 179 129" fill="none" xmlns="http://www.w3.org/2000/svg">
<rect y="5.0105" width="178.87" height="87.4296" rx="9.09053" fill="#303030"/>
<path d="M50.6064 38.7805C39.7827 37.1239 25.9355 47.0041 25.9355 47.0041C33.5033 54.5635 38.8961 56.7657 50.6064 56.9899C62.3166 57.2142 74.1024 48.4726 74.1024 48.4726C66.4469 42.7145 61.43 40.4372 50.6064 38.7805Z" fill="white"/>
<path d="M140.046 7.21094C137.935 -19.7781 161.722 49.92 161.78 50.0908C161.78 50.0908 163.386 66.9731 152.969 82.3984C142.802 97.4543 145.599 126.738 146.176 127.889C146.23 127.896 146.244 127.905 146.214 127.922C146.203 127.928 146.19 127.917 146.176 127.889C145.374 127.785 135.731 128.299 128.299 116.468C120.365 103.839 122.714 76.5242 119.193 73.5869C115.672 70.6496 90.9942 65.9511 89.2363 63.3076C87.4785 60.664 91.6094 51.6193 89.2363 37.4619C86.8636 23.3047 142.159 34.2332 140.046 7.21094ZM122.269 38.7812C111.445 37.1247 97.5977 47.0049 97.5977 47.0049C105.165 54.5641 110.558 56.766 122.269 56.9902C133.979 57.2144 145.765 48.4727 145.765 48.4727C138.109 42.7146 133.092 40.4379 122.269 38.7812Z" fill="white"/>
<path d="M140.046 7.21094L139.049 7.2889L139.049 7.2889L140.046 7.21094ZM161.78 50.0908L162.776 49.9962L162.765 49.8791L162.727 49.7679L161.78 50.0908ZM152.969 82.3984L152.14 81.8388L152.14 81.8388L152.969 82.3984ZM146.214 127.922L146.687 128.803L146.694 128.799L146.701 128.795L146.214 127.922ZM128.299 116.468L127.452 117L127.452 117L128.299 116.468ZM119.193 73.5869L119.834 72.8191L119.834 72.819L119.193 73.5869ZM89.2363 63.3076L88.4036 63.8613L88.4036 63.8613L89.2363 63.3076ZM89.2363 37.4619L88.2501 37.6272L88.2501 37.6272L89.2363 37.4619ZM122.269 38.7812L122.42 37.7928L122.42 37.7928L122.269 38.7812ZM97.5977 47.0049L97.0168 46.1909L96.0549 46.8772L96.8909 47.7124L97.5977 47.0049ZM122.269 56.9902L122.249 57.9901L122.249 57.9901L122.269 56.9902ZM145.765 48.4727L146.36 49.2758L147.436 48.4783L146.366 47.6735L145.765 48.4727ZM140.046 7.21094L141.043 7.13297C140.913 5.46736 140.885 4.20953 140.94 3.30283C140.998 2.33871 141.141 1.94633 141.205 1.85005C141.212 1.83908 141.131 1.95842 140.936 1.99247C140.766 2.02207 140.689 1.95395 140.758 1.99462C140.925 2.09221 141.252 2.40521 141.726 3.07736C143.581 5.70599 146.316 11.7765 149.173 18.8408C154.851 32.8846 160.805 50.3282 160.834 50.4137L161.78 50.0908L162.727 49.7679C162.698 49.6826 156.728 32.1917 151.027 18.0911C148.193 11.0831 145.374 4.77886 143.36 1.92443C142.868 1.22581 142.333 0.598782 141.768 0.268223C141.471 0.0948252 141.06 -0.0593999 140.592 0.0222235C140.099 0.108285 139.755 0.417765 139.538 0.745188C139.153 1.3257 139.002 2.20317 138.943 3.1831C138.881 4.22046 138.915 5.58088 139.049 7.2889L140.046 7.21094ZM161.78 50.0908C160.785 50.1855 160.785 50.1852 160.785 50.185C160.785 50.185 160.785 50.1849 160.785 50.1849C160.785 50.185 160.785 50.1853 160.785 50.1858C160.785 50.187 160.785 50.1891 160.785 50.1923C160.786 50.1986 160.787 50.209 160.788 50.2233C160.79 50.252 160.794 50.2965 160.798 50.3563C160.807 50.4759 160.819 50.6567 160.83 50.8942C160.853 51.3692 160.874 52.0707 160.868 52.963C160.856 54.7482 160.734 57.2936 160.291 60.3152C159.405 66.3629 157.241 74.285 152.14 81.8388L152.969 82.3984L153.797 82.9581C159.113 75.0866 161.355 66.8549 162.27 60.6051C162.728 57.4779 162.856 54.8387 162.868 52.9764C162.875 52.045 162.852 51.307 162.828 50.7985C162.816 50.5442 162.803 50.3473 162.793 50.2121C162.788 50.1444 162.784 50.0923 162.781 50.0561C162.78 50.038 162.778 50.0239 162.777 50.0139C162.777 50.0089 162.777 50.0049 162.776 50.002C162.776 50.0005 162.776 49.9993 162.776 49.9983C162.776 49.9978 162.776 49.9973 162.776 49.997C162.776 49.9966 162.776 49.9962 161.78 50.0908ZM152.969 82.3984L152.14 81.8388C146.896 89.6038 145.046 100.922 144.545 110.305C144.293 115.02 144.38 119.297 144.566 122.471C144.659 124.058 144.778 125.375 144.892 126.339C144.949 126.82 145.006 127.221 145.061 127.527C145.088 127.68 145.115 127.819 145.144 127.937C145.167 128.031 145.209 128.191 145.282 128.337L146.176 127.889L147.07 127.441C147.107 127.514 147.108 127.548 147.087 127.462C147.072 127.401 147.053 127.309 147.03 127.18C146.985 126.923 146.933 126.563 146.878 126.103C146.769 125.186 146.654 123.909 146.563 122.354C146.38 119.243 146.295 115.042 146.542 110.411C147.04 101.1 148.874 90.249 153.797 82.9581L152.969 82.3984ZM146.176 127.889L146.048 128.88C146.044 128.88 146.009 128.876 145.961 128.863C145.953 128.861 145.769 128.821 145.588 128.672C145.481 128.583 145.31 128.401 145.249 128.107C145.186 127.798 145.281 127.543 145.374 127.391C145.519 127.153 145.722 127.051 145.727 127.049L146.214 127.922L146.701 128.795C146.72 128.785 146.933 128.675 147.082 128.431C147.177 128.275 147.273 128.017 147.209 127.705C147.148 127.408 146.974 127.223 146.864 127.131C146.677 126.977 146.481 126.932 146.456 126.926C146.391 126.909 146.335 126.901 146.304 126.897L146.176 127.889ZM146.214 127.922L145.741 127.041C145.94 126.934 146.179 126.895 146.416 126.946C146.629 126.991 146.775 127.096 146.853 127.164C146.996 127.288 147.059 127.419 147.07 127.44L146.176 127.889L145.282 128.337C145.306 128.386 145.384 128.536 145.539 128.672C145.623 128.746 145.775 128.854 145.995 128.901C146.237 128.953 146.482 128.913 146.687 128.803L146.214 127.922ZM146.176 127.889L146.304 126.897C145.749 126.825 143.377 126.948 140.092 125.646C136.845 124.359 132.746 121.666 129.146 115.936L128.299 116.468L127.452 117C131.285 123.1 135.723 126.066 139.355 127.506C141.164 128.223 142.759 128.555 143.957 128.715C144.556 128.795 145.055 128.832 145.429 128.852C145.614 128.862 145.771 128.868 145.883 128.872C146.018 128.878 146.051 128.881 146.048 128.88L146.176 127.889ZM128.299 116.468L129.146 115.936C127.251 112.921 125.941 108.975 125.001 104.641C124.064 100.317 123.508 95.6734 123.087 91.2972C122.668 86.9528 122.379 82.8131 121.978 79.6255C121.777 78.026 121.542 76.6128 121.234 75.4907C120.943 74.4273 120.533 73.402 119.834 72.8191L119.193 73.5869L118.553 74.3547C118.734 74.5061 119.02 74.9769 119.305 76.0188C119.575 77.0021 119.796 78.3034 119.993 79.8751C120.39 83.0297 120.669 87.0587 121.096 91.4888C121.519 95.8871 122.084 100.624 123.047 105.065C124.008 109.496 125.379 113.701 127.452 117L128.299 116.468ZM119.193 73.5869L119.834 72.819C119.266 72.345 118.369 71.9026 117.345 71.4846C116.294 71.0549 115.004 70.6107 113.575 70.1597C110.716 69.2578 107.225 68.3068 103.818 67.3727C100.397 66.4348 97.0628 65.5146 94.4752 64.6657C93.1798 64.2408 92.0985 63.8423 91.2984 63.4778C90.8979 63.2953 90.5893 63.131 90.3678 62.9873C90.1286 62.8323 90.0655 62.7486 90.069 62.7539L89.2363 63.3076L88.4036 63.8613C88.6269 64.1971 88.9626 64.4599 89.2798 64.6655C89.6146 64.8826 90.0198 65.0931 90.4692 65.2978C91.3689 65.7077 92.5315 66.133 93.8518 66.5661C96.4957 67.4335 99.8808 68.3671 103.289 69.3015C106.711 70.2396 110.159 71.1792 112.973 72.067C114.38 72.5109 115.61 72.9362 116.589 73.3361C117.596 73.7475 118.241 74.0945 118.553 74.3548L119.193 73.5869ZM89.2363 63.3076L90.069 62.7539C89.9701 62.6051 89.8728 62.3485 89.8226 61.906C89.7727 61.4667 89.7762 60.9111 89.8259 60.2161C89.9268 58.8045 90.1957 57.0532 90.4601 54.82C90.9818 50.4141 91.4313 44.5077 90.2226 37.2966L89.2363 37.4619L88.2501 37.6272C89.4144 44.5735 88.9851 50.2682 88.474 54.5849C88.222 56.713 87.9361 58.6034 87.831 60.0735C87.7777 60.8195 87.7654 61.5149 87.8353 62.1315C87.9049 62.7449 88.0631 63.3492 88.4036 63.8613L89.2363 63.3076ZM89.2363 37.4619L90.2226 37.2966C89.99 35.9087 90.4321 34.8686 91.4795 33.9618C92.5918 32.9988 94.3769 32.2071 96.7485 31.5235C101.503 30.1531 107.994 29.37 114.723 28.1446C121.356 26.9366 128.165 25.3028 133.19 22.1975C135.719 20.635 137.835 18.6776 139.243 16.1796C140.656 13.6731 141.321 10.6864 141.043 7.13297L140.046 7.21094L139.049 7.2889C139.299 10.491 138.698 13.0739 137.501 15.1973C136.299 17.3292 134.46 19.0619 132.139 20.4961C127.465 23.3841 120.994 24.9697 114.365 26.177C107.831 27.3669 101.075 28.1951 96.1946 29.6017C93.7488 30.3067 91.6197 31.195 90.1705 32.4497C88.6563 33.7605 87.8895 35.4758 88.2501 37.6272L89.2363 37.4619ZM122.269 38.7812L122.42 37.7928C116.699 36.9172 110.301 39.0862 105.449 41.3668C103 42.5179 100.898 43.7202 99.4074 44.6347C98.6617 45.0923 98.0677 45.4787 97.6585 45.7519C97.4539 45.8886 97.2953 45.9969 97.187 46.0718C97.1329 46.1093 97.0913 46.1384 97.0628 46.1584C97.0485 46.1684 97.0375 46.1762 97.0298 46.1816C97.026 46.1844 97.023 46.1865 97.0208 46.188C97.0197 46.1888 97.0188 46.1894 97.0182 46.1899C97.0179 46.1901 97.0175 46.1904 97.0174 46.1905C97.0171 46.1907 97.0168 46.1909 97.5977 47.0049C98.1785 47.8189 98.1784 47.819 98.1783 47.8191C98.1783 47.819 98.1783 47.819 98.1784 47.819C98.1786 47.8188 98.179 47.8186 98.1796 47.8181C98.1808 47.8173 98.1828 47.8158 98.1857 47.8138C98.1914 47.8098 98.2004 47.8034 98.2127 47.7948C98.2372 47.7775 98.2747 47.7513 98.3246 47.7168C98.4244 47.6478 98.5739 47.5455 98.7691 47.4152C99.1594 47.1546 99.7318 46.7821 100.453 46.3393C101.898 45.453 103.934 44.2888 106.3 43.1769C111.077 40.9315 117.014 38.9887 122.117 39.7697L122.269 38.7812ZM97.5977 47.0049L96.8909 47.7124C100.723 51.5406 104.074 54.0816 108.004 55.6749C111.927 57.265 116.343 57.877 122.249 57.9901L122.269 56.9902L122.288 55.9904C116.484 55.8793 112.349 55.2781 108.755 53.8214C105.17 52.368 102.04 50.0284 98.3044 46.2974L97.5977 47.0049ZM122.269 56.9902L122.249 57.9901C128.336 58.1066 134.379 55.8996 138.847 53.7138C141.092 52.6157 142.964 51.5109 144.275 50.6798C144.932 50.2639 145.449 49.9159 145.804 49.6704C145.982 49.5477 146.119 49.4505 146.212 49.3833C146.259 49.3497 146.295 49.3236 146.32 49.3055C146.332 49.2965 146.342 49.2894 146.349 49.2845C146.352 49.282 146.355 49.28 146.357 49.2786C146.358 49.2778 146.358 49.2773 146.359 49.2768C146.359 49.2766 146.36 49.2763 146.36 49.2762C146.36 49.276 146.36 49.2758 145.765 48.4727C145.169 47.6695 145.169 47.6694 145.169 47.6693C145.169 47.6693 145.169 47.6693 145.169 47.6693C145.169 47.6694 145.169 47.6696 145.168 47.6699C145.167 47.6706 145.166 47.6718 145.163 47.6735C145.159 47.677 145.151 47.6824 145.141 47.6899C145.121 47.7049 145.089 47.7278 145.047 47.7582C144.962 47.819 144.834 47.9094 144.667 48.0253C144.331 48.257 143.837 48.5902 143.205 48.9903C141.941 49.7913 140.134 50.8579 137.969 51.9172C133.616 54.0463 127.911 56.0981 122.288 55.9904L122.269 56.9902ZM145.765 48.4727L146.366 47.6735C142.505 44.7695 139.262 42.7076 135.592 41.1669C131.923 39.6271 127.875 38.6276 122.42 37.7928L122.269 38.7812L122.117 39.7697C127.486 40.5915 131.358 41.5588 134.818 43.011C138.275 44.4623 141.369 46.4177 145.164 49.2718L145.765 48.4727Z" fill="#303030"/>
</svg>
