<svg width="240" height="230" viewBox="0 0 240 230" fill="none" xmlns="http://www.w3.org/2000/svg">
<rect x="2.5" y="32.5" width="211" height="114" rx="57" fill="#212121" stroke="#595959" stroke-width="5"/>
<path d="M62.8293 72.2646C47.5489 69.9238 28 83.8843 28 83.8843C38.6839 94.5655 46.2972 97.6772 62.8293 97.994C79.3613 98.3108 96 85.9593 96 85.9593C85.1923 77.8232 78.1097 74.6054 62.8293 72.2646Z" fill="white"/>
<mask id="path-3-outside-1_241_275" maskUnits="userSpaceOnUse" x="103" y="-1" width="137" height="231" fill="black">
<rect fill="white" x="103" y="-1" width="137" height="231"/>
<path d="M197.077 15.793C193.409 -31.1112 234.751 90.0333 234.845 90.3086C234.845 90.3086 237.636 119.646 219.534 146.451C201.433 173.255 214.002 224.821 213.135 224.827C212.266 224.827 190.449 227.601 176.662 205.655C162.875 183.709 166.957 136.244 160.84 131.14C154.722 126.035 111.837 117.87 108.781 113.276C105.726 108.682 112.905 92.9646 108.781 68.3623C104.658 43.7603 200.749 62.7512 197.077 15.793ZM166.183 70.6543C147.374 67.7755 123.311 84.9453 123.311 84.9453C136.462 98.0816 145.833 101.908 166.183 102.298C186.484 102.687 206.916 87.5686 207.013 87.4971C193.709 77.4909 184.991 73.5331 166.183 70.6543Z"/>
</mask>
<path d="M197.077 15.793C193.409 -31.1112 234.751 90.0333 234.845 90.3086C234.845 90.3086 237.636 119.646 219.534 146.451C201.433 173.255 214.002 224.821 213.135 224.827C212.266 224.827 190.449 227.601 176.662 205.655C162.875 183.709 166.957 136.244 160.84 131.14C154.722 126.035 111.837 117.87 108.781 113.276C105.726 108.682 112.905 92.9646 108.781 68.3623C104.658 43.7603 200.749 62.7512 197.077 15.793ZM166.183 70.6543C147.374 67.7755 123.311 84.9453 123.311 84.9453C136.462 98.0816 145.833 101.908 166.183 102.298C186.484 102.687 206.916 87.5686 207.013 87.4971C193.709 77.4909 184.991 73.5331 166.183 70.6543Z" fill="white"/>
<path d="M197.077 15.793L192.092 16.1828L192.092 16.1828L197.077 15.793ZM234.845 90.3086L239.822 89.835L239.767 89.2501L239.577 88.694L234.845 90.3086ZM219.534 146.451L215.391 143.653L215.391 143.653L219.534 146.451ZM213.135 224.827V229.827H213.152L213.169 229.827L213.135 224.827ZM176.662 205.655L172.428 208.315L172.428 208.315L176.662 205.655ZM160.84 131.14L164.043 127.301L164.043 127.301L160.84 131.14ZM108.781 113.276L104.618 116.045L104.618 116.046L108.781 113.276ZM108.781 68.3623L103.85 69.1888L103.85 69.1889L108.781 68.3623ZM166.183 70.6543L166.939 65.7119L166.939 65.7119L166.183 70.6543ZM123.311 84.9453L120.406 80.8752L115.597 84.3071L119.777 88.4828L123.311 84.9453ZM166.183 102.298L166.087 107.297L166.087 107.297L166.183 102.298ZM207.013 87.4971L209.989 91.5147L215.371 87.5275L210.018 83.5012L207.013 87.4971ZM197.077 15.793L202.062 15.4032C201.841 12.5777 201.805 10.5591 201.887 9.19663C201.986 7.54682 202.223 7.65685 201.81 8.27989C201.48 8.77748 200.645 9.6843 199.182 9.93875C197.848 10.171 196.916 9.68962 196.667 9.54405C196.308 9.3339 196.538 9.36633 197.332 10.4916C200.295 14.6929 204.913 24.863 209.915 37.2327C219.746 61.548 230.065 91.7848 230.113 91.9232L234.845 90.3086L239.577 88.694C239.53 88.557 229.132 58.0839 219.186 33.4843C214.298 21.3965 209.263 10.0578 205.504 4.72769C204.617 3.47007 203.349 1.86823 201.718 0.913484C200.833 0.395616 199.321 -0.235637 197.468 0.0867572C195.488 0.431373 194.195 1.66841 193.476 2.7539C192.283 4.55273 192.008 6.86929 191.905 8.59781C191.784 10.6137 191.855 13.1453 192.092 16.1828L197.077 15.793ZM234.845 90.3086C229.867 90.7822 229.867 90.7806 229.867 90.7791C229.867 90.7788 229.867 90.7774 229.867 90.7767C229.867 90.7754 229.866 90.7744 229.866 90.7739C229.866 90.7729 229.866 90.7737 229.867 90.7762C229.867 90.7812 229.868 90.7931 229.87 90.8119C229.873 90.8494 229.878 90.9143 229.885 91.0055C229.898 91.188 229.917 91.4757 229.935 91.861C229.972 92.6318 230.008 93.7912 229.998 95.278C229.978 98.2545 229.774 102.525 229.03 107.603C227.54 117.783 223.905 131.045 215.391 143.653L219.534 146.451L223.678 149.249C233.265 135.052 237.286 120.243 238.925 109.052C239.746 103.446 239.975 98.7066 239.998 95.3447C240.009 93.6623 239.969 92.3204 239.924 91.3821C239.901 90.9128 239.877 90.544 239.859 90.2837C239.849 90.1535 239.841 90.0503 239.835 89.9752C239.831 89.9377 239.829 89.9072 239.827 89.8837C239.826 89.872 239.825 89.8621 239.824 89.854C239.824 89.8499 239.823 89.8463 239.823 89.8431C239.823 89.8416 239.823 89.8395 239.823 89.8387C239.822 89.8368 239.822 89.835 234.845 90.3086ZM219.534 146.451L215.391 143.653C205.366 158.498 204.1 179.542 204.878 195.926C205.274 204.273 206.222 211.735 207.008 217.076C207.397 219.715 207.761 221.93 207.975 223.318C208.089 224.06 208.152 224.512 208.178 224.758C208.194 224.917 208.174 224.801 208.179 224.566C208.181 224.509 208.184 224.023 208.359 223.412C208.442 223.122 208.674 222.395 209.282 221.652C210.001 220.773 211.306 219.84 213.1 219.827L213.135 224.827L213.169 229.827C214.977 229.815 216.294 228.875 217.023 227.983C217.641 227.227 217.882 226.482 217.972 226.167C218.162 225.506 218.173 224.946 218.177 224.79C218.186 224.358 218.147 223.948 218.124 223.723C218.069 223.199 217.969 222.517 217.858 221.796C217.621 220.258 217.287 218.235 216.902 215.619C216.141 210.452 215.241 203.346 214.866 195.451C214.102 179.349 215.602 161.209 223.678 149.249L219.534 146.451ZM213.135 224.827V219.827C211.879 219.827 193.036 222.319 180.896 202.995L176.662 205.655L172.428 208.315C180.079 220.494 190.099 225.952 198.389 228.284C206.532 230.575 213.185 229.827 213.135 229.827V224.827ZM176.662 205.655L180.896 202.995C177.895 198.219 175.719 191.784 174.12 184.412C172.532 177.088 171.58 169.172 170.852 161.603C170.139 154.193 169.618 146.819 168.915 141.226C168.56 138.401 168.129 135.763 167.533 133.587C167.018 131.704 166.101 129.018 164.043 127.301L160.84 131.14L157.637 134.979C157.108 134.538 157.402 134.452 157.888 136.227C158.294 137.709 158.655 139.788 158.993 142.474C159.676 147.902 160.144 154.723 160.898 162.561C161.637 170.24 162.632 178.623 164.347 186.531C166.052 194.391 168.536 202.119 172.428 208.315L176.662 205.655ZM160.84 131.14L164.043 127.301C162.638 126.128 160.667 125.204 158.863 124.466C156.916 123.671 154.58 122.868 152.059 122.073C147.019 120.483 140.882 118.811 134.985 117.195C129.019 115.559 123.308 113.982 118.903 112.537C116.692 111.812 114.946 111.163 113.718 110.603C113.101 110.323 112.722 110.112 112.522 109.982C112.233 109.795 112.568 109.942 112.944 110.507L108.781 113.276L104.618 116.046C105.376 117.185 106.404 117.934 107.083 118.374C107.849 118.87 108.711 119.312 109.572 119.704C111.298 120.49 113.451 121.273 115.786 122.039C120.472 123.576 126.439 125.221 132.341 126.839C138.311 128.475 144.234 130.09 149.05 131.609C151.458 132.369 153.5 133.078 155.081 133.724C155.87 134.046 156.492 134.332 156.959 134.576C157.19 134.698 157.361 134.798 157.483 134.875C157.609 134.955 157.651 134.991 157.637 134.979L160.84 131.14ZM108.781 113.276L112.945 110.508C113.167 110.842 113.097 110.963 113.041 110.473C112.988 109.999 112.979 109.261 113.06 108.137C113.228 105.779 113.668 102.963 114.147 98.9104C115.071 91.1082 115.885 80.4991 113.712 67.5357L108.781 68.3623L103.85 69.1889C105.801 80.8278 105.088 90.3788 104.217 97.7346C103.799 101.261 103.275 104.773 103.085 107.424C102.987 108.803 102.951 110.24 103.105 111.6C103.258 112.945 103.632 114.562 104.618 116.045L108.781 113.276ZM108.781 68.3623L113.712 67.5358C113.517 66.3692 113.756 65.6631 114.815 64.7462C116.198 63.5486 118.739 62.3303 122.739 61.1773C130.797 58.8548 141.644 57.5678 153.656 55.3803C165.19 53.2799 177.572 50.3621 186.879 44.6113C191.612 41.6866 195.74 37.9187 198.524 32.9804C201.332 28.0002 202.59 22.1514 202.062 15.4031L197.077 15.793L192.092 16.1828C192.483 21.1741 191.541 25.004 189.813 28.0693C188.061 31.1767 185.317 33.8214 181.622 36.1043C174.074 40.7685 163.379 43.4452 151.864 45.5421C140.828 47.552 128.655 49.065 119.97 51.5685C115.599 52.8284 111.337 54.5296 108.269 57.1859C104.877 60.1228 103.015 64.2049 103.85 69.1888L108.781 68.3623ZM166.183 70.6543L166.939 65.7119C155.991 64.0362 144.121 68.1744 135.566 72.1952C131.175 74.2591 127.414 76.4109 124.749 78.0459C123.414 78.8653 122.347 79.5596 121.605 80.0549C121.234 80.3027 120.944 80.501 120.742 80.6407C120.64 80.7106 120.561 80.7658 120.505 80.8053C120.477 80.825 120.455 80.8408 120.438 80.8525C120.43 80.8583 120.423 80.8632 120.418 80.867C120.415 80.8688 120.413 80.8705 120.411 80.8719C120.41 80.8725 120.409 80.8734 120.408 80.8737C120.407 80.8745 120.406 80.8752 123.311 84.9453C126.215 89.0154 126.214 89.016 126.213 89.0165C126.213 89.0166 126.212 89.017 126.212 89.0172C126.212 89.0175 126.212 89.0176 126.212 89.0174C126.212 89.0171 126.214 89.0157 126.218 89.0133C126.225 89.0085 126.237 88.9997 126.255 88.987C126.291 88.9617 126.349 88.9208 126.429 88.8657C126.589 88.7552 126.834 88.5875 127.158 88.3714C127.805 87.939 128.765 87.3144 129.979 86.5691C132.415 85.0747 135.844 83.114 139.82 81.2453C147.999 77.4009 157.565 74.3936 165.426 75.5967L166.183 70.6543ZM123.311 84.9453L119.777 88.4828C126.596 95.2939 132.776 100.038 140.169 103.035C147.522 106.016 155.656 107.097 166.087 107.297L166.183 102.298L166.278 97.2988C156.36 97.1089 149.633 96.0818 143.926 93.7679C138.257 91.4701 133.176 87.733 126.844 81.4078L123.311 84.9453ZM166.183 102.298L166.087 107.297C177.394 107.513 188.42 103.445 196.369 99.5629C204.4 95.6407 209.803 91.6528 209.989 91.5147L207.013 87.4971L204.036 83.4794C204.126 83.4129 199.265 87.0197 191.98 90.5772C184.613 94.175 175.272 97.471 166.278 97.2988L166.183 102.298ZM207.013 87.4971L210.018 83.5012C203.201 78.3737 197.324 74.6164 190.598 71.7927C183.883 68.9737 176.558 67.1842 166.939 65.7119L166.183 70.6543L165.426 75.5967C174.616 77.0033 181.055 78.6321 186.727 81.0132C192.388 83.3897 197.521 86.6143 204.007 91.4929L207.013 87.4971Z" fill="black" mask="url(#path-3-outside-1_241_275)"/>
</svg>
